<?xml version="1.0" encoding="UTF-8" standalone="no"?>
<!-- Created with Inkscape (http://www.inkscape.org/) -->

<svg
   version="1.1"
   id="svg1"
   width="1379"
   height="318"
   viewBox="0 0 318 318"
   xmlns="http://www.w3.org/2000/svg"
   xmlns:svg="http://www.w3.org/2000/svg">
  <defs
     id="defs1" />
  <g
     id="g1">
    <path
       style="fill:#32cd32;fill-opacity:1"
       d="m 875.5,67.081061 c -4.47488,-1.094501 -6.89042,-2.62276 -10.32078,-6.529718 -13.58972,-15.477841 4.43235,-38.26853 23.43687,-29.638227 7.98317,3.625306 12.72932,13.565699 10.45331,21.893559 -2.68867,9.837808 -13.91371,16.636052 -23.5694,14.274386 z"
       id="path9" />
    <path
       style="fill:#32cd32;fill-opacity:1"
       d="M 99.5,216.93002 C 71.392775,213.56459 41.604385,196.01664 26.285638,173.80039 2.6439005,139.5136 -0.14479464,99.301164 18.601734,63 32.890136,35.331643 59.335289,15.226251 91.295015,7.7336574 100.39368,5.6005799 101.64929,5.5752166 200,5.5378268 c 98.09017,-0.037291 99.54959,-0.00916 103,1.9850512 3.99818,2.3108089 8.01141,9.322613 7.97804,13.939012 -0.0319,4.406086 -3.37387,11.09603 -6.59924,13.210153 -2.64043,1.730712 -8.11106,1.855819 -102.83379,2.351688 L 101.5,37.547461 l -9,2.777318 C 65.649424,48.61062 46.831087,68.514859 39.88742,95.973341 37.007595,107.3615 37.569119,122.93646 41.268421,134.27805 48.655904,156.92714 66.596649,174.58702 90.5,182.7389 l 8,2.72829 69.67797,0.5164 c 68.40478,0.50697 69.7284,0.55408 72.43821,2.5782 5.05081,3.77275 6.81239,7.06943 6.81239,12.74895 0,6.2514 -2.65632,11.20458 -7.6095,14.18926 -3.22213,1.94159 -5.21746,2.00392 -68.31907,2.13408 -35.75,0.0737 -68.15,-0.24308 -72,-0.70406 z"
       id="path8" />
    <path
       style="fill:#000000"
       d="m 1245.8129,276.53024 c -12.6672,-3.4888 -23.1262,-12.18534 -28.9005,-24.03024 -3.3302,-6.83132 -3.4124,-7.30246 -3.4124,-19.55186 0,-12.53926 0,-12.55966 3.8368,-20.31503 4.5922,-9.29179 11.7567,-16.83924 20.1913,-21.27073 3.2845,-1.72569 19.4719,-8.16256 35.9719,-14.30416 48.201,-17.94129 59.2073,-22.20199 62.4559,-24.17758 5.7034,-3.46849 8.9336,-11.32572 7.5932,-18.47041 -0.9028,-4.8127 -7.3887,-11.74598 -12.3895,-13.24427 C 1328.4291,120.34789 1312.871,120 1279.0163,120 h -48.2516 l -3.7994,-3.79941 c -4.9504,-4.95038 -5.9412,-9.71598 -3.3416,-16.07313 1.5029,-3.675306 2.8087,-5.090424 6.3461,-6.87746 4.4336,-2.239714 4.6722,-2.25 52.1929,-2.25 30.9887,0 49.5982,0.387741 53.0381,1.105084 14.2795,2.977803 26.3033,12.431666 32.5556,25.597206 3.0351,6.39118 3.5975,8.73503 4.0162,16.73976 0.5607,10.71969 -0.7025,17.36769 -4.8909,25.74086 -3.3058,6.60853 -10.6378,14.31203 -17.3858,18.26661 -3.8529,2.25798 -61.7839,24.69443 -90.9959,35.24239 -3.85,1.39017 -8.5115,3.66346 -10.3588,5.05175 -3.9344,2.95663 -7.095,9.30049 -7.1028,14.25634 -0.01,4.92917 3.7773,11.04856 8.482,13.71317 l 3.9796,2.25393 51,0.022 c 30.4506,0.0132 52.4332,0.42016 54.5568,1.01012 1.9563,0.54345 4.8526,2.34048 6.4362,3.9934 3.822,3.98934 4.6673,12.83773 1.6802,17.58739 -4.0998,6.51884 -3.2135,6.42953 -62.8243,6.33054 -40.6686,-0.0675 -54.9961,-0.40539 -58.536,-1.38034 z"
       id="path7" />
    <path
       style="fill:#000000"
       d="m 1166.5,278.32596 c -3.9097,-1.03552 -8.4302,-5.36021 -9.5142,-9.10224 -0.7516,-2.59442 -0.9888,-38.51905 -0.7823,-118.4572 l 0.2965,-114.733484 3.6785,-3.678313 c 3.136,-3.135868 4.4632,-3.736398 9,-4.072186 6.8763,-0.508952 11.185,2.024293 13.9062,8.175997 1.8996,4.294349 1.9419,7.273456 1.682,118.400266 -0.2652,113.36709 -0.2781,114.01029 -2.3285,116.75635 -4.1893,5.61055 -10.3301,8.19615 -15.9382,6.71081 z"
       id="path6" />
    <path
       style="fill:#000000"
       d="m 869.06621,276.40226 c -6.3228,-5.32029 -6.06833,-1.52614 -6.04425,-90.12014 0.0208,-76.66608 0.11697,-80.99132 1.88659,-84.88801 4.53289,-9.981391 18.9181,-10.568637 24.70591,-1.00857 1.7999,2.973 1.89794,6.78467 2.15849,83.92237 0.17559,51.98414 -0.0862,82.14186 -0.73405,84.54763 -0.55385,2.05685 -2.36372,5.03954 -4.02193,6.62821 -2.44654,2.34393 -4.10817,2.96756 -8.81377,3.30793 -5.21262,0.37705 -6.13629,0.1355 -9.13699,-2.38942 z"
       id="path5" />
    <path
       style="fill:#000000"
       d="m 479.26969,277.51741 c -3.66629,-1.59383 -6.78379,-6.1138 -7.74287,-11.22614 -0.90983,-4.84979 2.79486,-12.03943 7.45758,-14.47282 3.22978,-1.68557 7.06609,-1.81886 52.5,-1.82403 29.05437,-0.003 50.45778,-0.40622 52.55694,-0.98939 7.97654,-2.21594 14.9573,-10.17143 17.02239,-19.39919 1.63244,-7.29451 -0.65035,-15.11719 -6.15372,-21.08764 -7.39768,-8.02553 -6.98255,-7.94809 -45.91001,-8.5645 -33.86142,-0.53619 -34.62253,-0.59318 -41.11957,-3.07854 -9.35003,-3.57675 -14.54579,-6.85981 -20.9617,-13.24515 -9.50012,-9.45486 -14.9296,-23.14618 -14.90686,-37.59011 0.023,-14.61509 5.45796,-27.60011 15.89726,-37.98124 7.81004,-7.76653 14.16326,-11.391726 24.67631,-14.080512 C 519.73367,92.149939 523.76037,92 565.70962,92 c 49.72419,0 48.46943,-0.141226 53.67126,6.040808 3.29444,3.915212 3.64269,11.768402 0.73344,16.539232 -3.89048,6.37994 -4.22025,6.41996 -52.90061,6.41996 -50.73418,0 -51.33694,0.0814 -59.29377,8.00433 -3.6873,3.6716 -4.92948,5.85138 -6.37262,11.18277 -1.53561,5.67301 -1.61797,7.34992 -0.57462,11.69909 1.59473,6.64759 5.79978,12.30811 11.73514,15.79695 L 517.5,170.5 l 35,0.55907 c 32.68721,0.52213 35.38664,0.70259 40.85109,2.73092 22.33487,8.2904 36.67043,28.44619 36.63704,51.51163 -0.0214,14.81259 -4.48953,25.8925 -14.91143,36.97719 -5.01881,5.33799 -8.18929,7.67462 -14.5,10.6864 -4.44218,2.12004 -10.46135,4.34515 -13.37592,4.9447 -3.42465,0.70448 -22.88066,1.07624 -55,1.05095 -40.40757,-0.0318 -50.30479,-0.30172 -52.93109,-1.44345 z"
       id="path4" />
    <path
       style="fill:#000000"
       d="m 996.3602,278.52367 c -9.27206,-1.68282 -13.34281,-3.04174 -21.8602,-7.29751 -10.38768,-5.19027 -17.60093,-10.40942 -25.55615,-18.49114 -36.25946,-36.83607 -36.84582,-94.32332 -1.35312,-132.65968 7.75378,-8.375 16.09612,-14.4012 27.87475,-20.135699 15.25827,-7.428574 24.33366,-9.25234 45.16942,-9.077109 14.6393,0.12312 18.5601,0.505648 26.921,2.62658 17.5937,4.463004 30.9082,12.158628 43.5578,25.175898 12.7509,13.12147 20.0332,26.56295 23.9244,44.15892 1.7458,7.89444 1.9202,13.09052 1.9365,57.67607 0.017,47.40349 -0.048,49.10785 -2.0002,52.31018 -3.9467,6.47337 -15.1901,8.13857 -20.6317,3.05564 -5.4258,-5.06825 -5.3414,-4.22402 -5.3601,-53.56616 -0.02,-51.57872 -0.2745,-54.08549 -6.8828,-67.67131 -7.3173,-15.04348 -20.6874,-26.58303 -37.0755,-31.99936 -7.8056,-2.57978 -9.5625,-2.78016 -23.8025,-2.71473 -20.5748,0.0945 -29.45331,2.41483 -42.09849,11.002 -12.41136,8.42839 -23.31057,24.22603 -26.70574,38.70808 -2.13271,9.09709 -2.11949,24.09995 0.0285,32.37566 3.10387,11.95825 8.17018,20.6601 17.52807,30.10603 6.54756,6.60916 10.26604,9.45477 16.02581,12.26391 12.1427,5.92223 19.14145,6.94239 43.04275,6.27409 23.8936,-0.66809 25.4825,-0.23236 29.1174,7.98503 2.7079,6.12164 1.8346,10.6194 -2.993,15.41444 -3.5095,3.48578 -4.1092,3.69205 -13.9529,4.79941 -13.2794,1.49384 -35.7452,1.33395 -44.85405,-0.31924 z"
       id="path3" />
    <path
       style="fill:#000000"
       d="m 723.85367,278.93925 c -26.76602,-3.65447 -53.92029,-24.0607 -67.11876,-50.43925 -12.2451,-24.47314 -12.59767,-57.9266 -0.87415,-82.94394 10.15372,-21.66748 23.86338,-35.77887 44.21086,-45.5064 16.26353,-7.775103 20.6235,-8.477914 52.42838,-8.451267 31.46457,0.02636 36.16315,0.695137 49.31015,7.01859 27.27342,13.117987 38.20297,46.848317 23.90866,73.785957 -6.74276,12.70673 -21.31585,23.5822 -35.51803,26.50608 C 787.02924,199.56196 772.23411,200 753.35191,200 c -27.3997,0 -32.01256,-0.21966 -35.06884,-1.66996 -4.85205,-2.30245 -7.27474,-6.64414 -7.27933,-13.04524 -0.003,-4.40254 0.47656,-5.76224 3.07853,-8.72571 1.72905,-1.96929 4.69251,-3.95776 6.75,-4.52922 2.10876,-0.58571 16.41921,-1.02524 33.66773,-1.03406 29.36533,-0.015 30.10664,-0.065 35.04087,-2.36268 18.77127,-8.74104 19.11138,-33.88479 0.59467,-43.96284 -6.94839,-3.78179 -18.11856,-4.95579 -42.57779,-4.475 -19.24825,0.37836 -20.40258,0.51596 -28.60192,3.40941 -10.75948,3.79691 -18.30043,8.78209 -26.00771,17.19322 -11.8481,12.93011 -17.55401,29.26589 -16.66181,47.70208 0.85822,17.73419 6.95753,31.75253 19.16637,44.05101 7.69316,7.74965 14.52281,12.0681 24.54732,15.52153 9.31603,3.20935 43.00817,3.99167 61.37607,1.42513 6.86975,-0.95991 14.07798,-1.44747 16.01828,-1.08347 10.40364,1.95174 14.18137,16.36108 6.14037,23.42117 -3.94357,3.4625 -4.14087,3.53328 -16.03472,5.75198 -10.44131,1.94774 -52.7069,2.8455 -63.64633,1.3519 z"
       id="path2" />
    <path
       style="fill:#32cd32;fill-opacity:1"
       d="m 41.542493,306.77945 c -6.675068,-6.7162 -7.00457,-16.01138 -0.789995,-22.28558 C 46.447794,278.74392 41.161935,279 154.15399,279 c 116.99176,0 109.82208,0.42715 126.43439,-7.53265 19.59071,-9.38689 35.21009,-28.98708 40.42108,-50.72293 8.06565,-33.6431 -8.86662,-69.1137 -40.42683,-84.6882 -15.3689,-7.58434 -12.89747,-7.36502 -90.08263,-7.99397 l -69,-0.56225 -3.13626,-2.2371 c -9.71647,-6.9308 -6.92262,-23.96649 4.479,-27.310995 2.49852,-0.732905 25.5187,-0.966049 72.65726,-0.735857 68.86402,0.336282 69.0167,0.34158 77.47374,2.688204 32.07214,8.899248 57.32949,29.622618 71.03161,58.280648 21.58008,45.13483 9.57125,98.0359 -29.37903,129.41997 -9.44441,7.60979 -28.05005,17.15721 -40.12632,20.59065 l -8,2.27451 -110.35213,0.29443 -110.352137,0.29443 z"
       id="path1" />
  </g>
</svg>
